<svg xmlns="http://www.w3.org/2000/svg" xmlns:xlink="http://www.w3.org/1999/xlink" xmlns:inkscape="http://www.inkscape.org/namespaces/inkscape" version="1.1" width="595" height="842" viewBox="0 0 595 842"><text xml:space="preserve" transform="matrix(.9997155 0 -0 1 0 842)" font-size="8.997" font-family="KTPFLV+TimesNewRoman"><tspan y="-791.013" x="306.688"></tspan></text><text xml:space="preserve" transform="matrix(.99971196 0 -0 1 0 842)" font-size="10.557" font-family="KTPFLV+TimesNewRoman"><tspan y="-45.067" x="297.926 301.287 303.928 309.21 311.97 315.451">- 3 - </tspan></text><text xml:space="preserve" transform="matrix(.999709 0 -0 1 0 842)" font-size="15.955" font-family="KSOPYW+·ÂËÎ"><tspan y="-755.259" x="76.582 92.667 108.632 124.597 140.681 156.646 172.611 188.575 204.66 220.625 236.589 252.674 268.639">&#x58f0;&#x533b;&#x5e08;&#x62c5;&#x4efb;&#x8003;&#x5b98;&#x3002;&#x6bcf;&#x8003;&#x7ad9;&#x5b89;&#x6392;</tspan></text><text xml:space="preserve" transform="matrix(.999709 0 -0 1 0 842)" font-size="15.955" font-family="KTPFLV+TimesNewRoman"><tspan y="-755.259" x="288.684">2</tspan></text><text xml:space="preserve" transform="matrix(.999709 0 -0 1 0 842)" font-size="15.955" font-family="KSOPYW+·ÂËÎ"><tspan y="-755.259" x="299.847 315.932 331.897 347.862 363.946 379.911">&#x540d;&#x8003;&#x6838;&#x79d8;&#x4e66;&#x3002;</tspan></text><text xml:space="preserve" transform="matrix(.999709 0 -0 1 0 842)" font-size="15.955" font-family="KTPFLV+TimesNewRoman"><tspan y="-755.259" x="395.876"></tspan></text><text xml:space="preserve" transform="matrix(.999709 0 -0 1 0 842)" font-size="15.955" font-family="DYGVYL+TimesNewRoman,Bold" font-weight="bold"><tspan y="-724.068" x="108.752">6</tspan></text><text xml:space="preserve" transform="matrix(.999709 0 -0 1 0 842)" font-size="15.955" font-family="KSOPYW+·ÂËÎ"><tspan y="-723.948" x="116.914">&#xff0e;</tspan></text><text xml:space="preserve" transform="matrix(.999709 0 -0 1 0 842)" font-size="15.955" font-family="KSOPYW+·ÂËÎ"><tspan y="-723.948" x="116.914">&#xff0e;</tspan></text><text xml:space="preserve" transform="matrix(.999709 0 -0 1 0 842)" font-size="15.955" font-family="KSOPYW+·ÂËÎ"><tspan y="-723.948" x="132.999">&#x573a;</tspan></text><text xml:space="preserve" transform="matrix(.999709 0 -0 1 0 842)" font-size="15.955" font-family="KSOPYW+·ÂËÎ"><tspan y="-723.948" x="132.999">&#x573a;</tspan></text><text xml:space="preserve" transform="matrix(.999709 0 -0 1 0 842)" font-size="15.955" font-family="KSOPYW+·ÂËÎ"><tspan y="-723.948" x="149.084">&#x5730;</tspan></text><text xml:space="preserve" transform="matrix(.999709 0 -0 1 0 842)" font-size="15.955" font-family="KSOPYW+·ÂËÎ"><tspan y="-723.948" x="149.084">&#x5730;</tspan></text><text xml:space="preserve" transform="matrix(.999709 0 -0 1 0 842)" font-size="15.955" font-family="KSOPYW+·ÂËÎ"><tspan y="-723.948" x="165.168">&#x8bbe;</tspan></text><text xml:space="preserve" transform="matrix(.999709 0 -0 1 0 842)" font-size="15.955" font-family="KSOPYW+·ÂËÎ"><tspan y="-723.948" x="165.168">&#x8bbe;</tspan></text><text xml:space="preserve" transform="matrix(.999709 0 -0 1 0 842)" font-size="15.955" font-family="KSOPYW+·ÂËÎ"><tspan y="-723.948" x="181.253">&#x5907;</tspan></text><text xml:space="preserve" transform="matrix(.999709 0 -0 1 0 842)" font-size="15.955" font-family="KSOPYW+·ÂËÎ"><tspan y="-723.948" x="181.253">&#x5907;</tspan></text><text xml:space="preserve" transform="matrix(.999709 0 -0 1 0 842)" font-size="15.955" font-family="KSOPYW+·ÂËÎ"><tspan y="-724.068" x="197.218 213.183 229.147 245.232 261.197 277.161 293.246 309.211 325.175 341.14 357.225 373.19 389.154 405.239 421.204 437.168 453.133 469.218 485.183 501.147">&#xff1a;&#x9700;&#x6839;&#x636e;&#x8003;&#x751f;&#x6570;&#x91cf;&#x914d;&#x5907;&#x8db3;&#x591f;&#x7684;&#x8003;&#x8bd5;&#x623f;&#x95f4;&#xff0c;&#x623f;&#x95f4;</tspan><tspan y="-692.877" x="76.582 92.667 108.632 124.596">&#x6570;&#x91cf;&#x4e3a;&#xff08;</tspan></text><text xml:space="preserve" transform="matrix(.999709 0 -0 1 0 842)" font-size="15.955" font-family="KTPFLV+TimesNewRoman"><tspan y="-692.877" x="140.681 148.723 157.726">4&#x00d7;n</tspan></text><text xml:space="preserve" transform="matrix(.999709 0 -0 1 0 842)" font-size="15.955" font-family="KSOPYW+·ÂËÎ"><tspan y="-692.877" x="165.648 181.733 197.698">&#xff09;&#x95f4;&#xff0c;</tspan></text><text xml:space="preserve" transform="matrix(.999709 0 -0 1 0 842)" font-size="15.955" font-family="KTPFLV+TimesNewRoman"><tspan y="-692.877" x="213.782">n</tspan></text><text xml:space="preserve" transform="matrix(.999709 0 -0 1 0 842)" font-size="15.955" font-family="KSOPYW+·ÂËÎ"><tspan y="-692.877" x="221.705">&#x2265;</tspan></text><text xml:space="preserve" transform="matrix(.999709 0 -0 1 0 842)" font-size="15.955" font-family="KTPFLV+TimesNewRoman"><tspan y="-692.877" x="237.789">1</tspan></text><text xml:space="preserve" transform="matrix(.999709 0 -0 1 0 842)" font-size="15.955" font-family="KSOPYW+·ÂËÎ"><tspan y="-692.877" x="245.712 261.796 277.761 293.726 309.691 325.775 341.74">&#x3002;&#x6bcf;&#x4e2a;&#x8003;&#x95f4;&#x914d;&#x5907;</tspan></text><text xml:space="preserve" transform="matrix(.999709 0 -0 1 0 842)" font-size="15.955" font-family="KTPFLV+TimesNewRoman"><tspan y="-692.877" x="361.786">3</tspan></text><text xml:space="preserve" transform="matrix(.999709 0 -0 1 0 842)" font-size="15.955" font-family="KSOPYW+·ÂËÎ"><tspan y="-692.877" x="372.949 388.914 404.998 420.963 437.048 453.012">&#x4e2a;&#x5e73;&#x677f;&#x7535;&#x8111;&#xff08;</tspan></text><text xml:space="preserve" transform="matrix(.999709 0 -0 1 0 842)" font-size="15.955" font-family="KTPFLV+TimesNewRoman"><tspan y="-692.877" x="468.977">2</tspan></text><text xml:space="preserve" transform="matrix(.999709 0 -0 1 0 842)" font-size="15.955" font-family="KSOPYW+·ÂËÎ"><tspan y="-692.877" x="480.26 496.225">&#x4e2a;&#x4f9b;</tspan><tspan y="-661.686" x="76.582 92.666 108.631 124.596 140.68">&#x8003;&#x5b98;&#x4f7f;&#x7528;&#xff0c;</tspan></text><text xml:space="preserve" transform="matrix(.999709 0 -0 1 0 842)" font-size="15.955" font-family="KTPFLV+TimesNewRoman"><tspan y="-661.686" x="156.645">1</tspan></text><text xml:space="preserve" transform="matrix(.999709 0 -0 1 0 842)" font-size="15.955" font-family="KSOPYW+·ÂËÎ"><tspan y="-661.686" x="167.808 183.773 199.858 215.823 231.787 247.872 263.837 279.801 295.766 311.851 327.815 343.78 359.865 375.83">&#x4e2a;&#x4f9b;&#x8003;&#x751f;&#x4f7f;&#x7528;&#xff09;&#x6216;&#x5927;&#x5c4f;&#x5e55;&#x6295;&#x5f71;&#x673a;</tspan></text><text xml:space="preserve" transform="matrix(.999709 0 -0 1 0 842)" font-size="15.955" font-family="KTPFLV+TimesNewRoman"><tspan y="-661.686" x="391.914 400.916">+1</tspan></text><text xml:space="preserve" transform="matrix(.999709 0 -0 1 0 842)" font-size="15.955" font-family="KSOPYW+·ÂËÎ"><tspan y="-661.686" x="412.08 428.164 444.129 460.094">&#x53f0;&#x7535;&#x8111;&#x3001;</tspan></text><text xml:space="preserve" transform="matrix(.999709 0 -0 1 0 842)" font-size="15.955" font-family="KTPFLV+TimesNewRoman"><tspan y="-661.686" x="476.178">1</tspan></text><text xml:space="preserve" transform="matrix(.999709 0 -0 1 0 842)" font-size="15.955" font-family="KSOPYW+·ÂËÎ"><tspan y="-661.686" x="487.342">&#x4e2a;</tspan><tspan y="-630.495" x="76.581 92.666 108.63 124.715">&#x8ba1;&#x65f6;&#x5668;&#x53ca;</tspan></text><text xml:space="preserve" transform="matrix(.999709 0 -0 1 0 842)" font-size="15.955" font-family="KTPFLV+TimesNewRoman"><tspan y="-630.495" x="144.641">1</tspan></text><text xml:space="preserve" transform="matrix(.999709 0 -0 1 0 842)" font-size="15.955" font-family="KSOPYW+·ÂËÎ"><tspan y="-630.495" x="155.924">&#x684c;</tspan></text><text xml:space="preserve" transform="matrix(.999709 0 -0 1 0 842)" font-size="15.955" font-family="KTPFLV+TimesNewRoman"><tspan y="-630.495" x="175.85">3</tspan></text><text xml:space="preserve" transform="matrix(.999709 0 -0 1 0 842)" font-size="15.955" font-family="KSOPYW+·ÂËÎ"><tspan y="-630.495" x="187.013 203.098 219.063 235.027 251.112 267.077 283.042 299.006 315.091 331.056 347.02 363.105 379.07 395.035 410.999 427.084 443.049 459.013 475.098">&#x6905;&#x3002;&#x8003;&#x5b98;&#x9700;&#x914d;&#x5907;&#x8bd5;&#x9898;&#x7b54;&#x6848;&#x3001;&#x8bc4;&#x5206;&#x7ec6;&#x5219;&#x53ca;&#x8bc4;&#x5206;</tspan><tspan y="-599.304" x="76.581 92.665 108.63 124.595 140.68 156.644 172.609 188.574 204.658 220.623 236.588 252.672 268.637 284.602 300.567 316.651 332.616">&#x8868;&#x3001;&#x7b7e;&#x5b57;&#x7b14;&#x3001;&#x5907;&#x7528;&#x7eb8;&#x3002;&#x8003;&#x751f;&#x914d;&#x5907;&#x8bd5;&#x9898;&#x3002;</tspan></text><text xml:space="preserve" transform="matrix(.999709 0 -0 1 0 842)" font-size="15.955" font-family="KTPFLV+TimesNewRoman"><tspan y="-599.304" x="348.581"></tspan></text><text xml:space="preserve" transform="matrix(.999709 0 -0 1 0 842)" font-size="15.955" font-family="DYGVYL+TimesNewRoman,Bold" font-weight="bold"><tspan y="-568.113" x="108.75">7</tspan></text><text xml:space="preserve" transform="matrix(.999709 0 -0 1 0 842)" font-size="15.955" font-family="KSOPYW+·ÂËÎ"><tspan y="-567.993" x="116.914">&#xff0e;</tspan></text><text xml:space="preserve" transform="matrix(.999709 0 -0 1 0 842)" font-size="15.955" font-family="KSOPYW+·ÂËÎ"><tspan y="-567.993" x="116.914">&#xff0e;</tspan></text><text xml:space="preserve" transform="matrix(.999709 0 -0 1 0 842)" font-size="15.955" font-family="KSOPYW+·ÂËÎ"><tspan y="-567.993" x="132.999">&#x8003;</tspan></text><text xml:space="preserve" transform="matrix(.999709 0 -0 1 0 842)" font-size="15.955" font-family="KSOPYW+·ÂËÎ"><tspan y="-567.993" x="132.999">&#x8003;</tspan></text><text xml:space="preserve" transform="matrix(.999709 0 -0 1 0 842)" font-size="15.955" font-family="KSOPYW+·ÂËÎ"><tspan y="-567.993" x="149.084">&#x6838;</tspan></text><text xml:space="preserve" transform="matrix(.999709 0 -0 1 0 842)" font-size="15.955" font-family="KSOPYW+·ÂËÎ"><tspan y="-567.993" x="149.084">&#x6838;</tspan></text><text xml:space="preserve" transform="matrix(.999709 0 -0 1 0 842)" font-size="15.955" font-family="KSOPYW+·ÂËÎ"><tspan y="-567.993" x="165.168">&#x8bc4;</tspan></text><text xml:space="preserve" transform="matrix(.999709 0 -0 1 0 842)" font-size="15.955" font-family="KSOPYW+·ÂËÎ"><tspan y="-567.993" x="165.168">&#x8bc4;</tspan></text><text xml:space="preserve" transform="matrix(.999709 0 -0 1 0 842)" font-size="15.955" font-family="KSOPYW+·ÂËÎ"><tspan y="-567.993" x="181.253">&#x5206;</tspan></text><text xml:space="preserve" transform="matrix(.999709 0 -0 1 0 842)" font-size="15.955" font-family="KSOPYW+·ÂËÎ"><tspan y="-567.993" x="181.253">&#x5206;</tspan></text><text xml:space="preserve" transform="matrix(.999709 0 -0 1 0 842)" font-size="15.955" font-family="KSOPYW+·ÂËÎ"><tspan y="-568.113" x="197.218 213.183 229.147 245.232 261.197">&#xff1a;&#x6bcf;&#x4e9a;&#x7ad9;&#x7531;</tspan></text><text xml:space="preserve" transform="matrix(.999709 0 -0 1 0 842)" font-size="15.955" font-family="KTPFLV+TimesNewRoman"><tspan y="-568.113" x="282.683">2</tspan></text><text xml:space="preserve" transform="matrix(.999709 0 -0 1 0 842)" font-size="15.955" font-family="KSOPYW+·ÂËÎ"><tspan y="-568.113" x="295.047 311.011 326.976 342.941 359.025 374.99 390.955 407.04 423.004 438.969 454.934 471.018 486.983 502.948">&#x540d;&#x8003;&#x5b98;&#x6839;&#x636e;&#x8bc4;&#x5206;&#x7ec6;&#x5219;&#x5728;&#x8bc4;&#x5206;&#x8868;&#x4e0a;</tspan><tspan y="-536.923" x="76.583 92.667 108.632 124.597 140.681 156.646 172.611 188.575">&#x8fdb;&#x884c;&#x72ec;&#x7acb;&#x8bc4;&#x5206;&#xff0c;&#x53d6;</tspan></text><text xml:space="preserve" transform="matrix(.999709 0 -0 1 0 842)" font-size="15.955" font-family="KTPFLV+TimesNewRoman"><tspan y="-536.923" x="208.621">2</tspan></text><text xml:space="preserve" transform="matrix(.999709 0 -0 1 0 842)" font-size="15.955" font-family="KSOPYW+·ÂËÎ"><tspan y="-536.923" x="219.784 235.869 251.834 267.798 283.883 299.848 315.932 331.897 347.862 363.947">&#x540d;&#x8003;&#x5b98;&#x7684;&#x5e73;&#x5747;&#x5206;&#x3002;&#x603b;&#x5206;</tspan></text><text xml:space="preserve" transform="matrix(.999709 0 -0 1 0 842)" font-size="15.955" font-family="KTPFLV+TimesNewRoman"><tspan y="-536.923" x="383.992 391.914 399.957">100</tspan></text><text xml:space="preserve" transform="matrix(.999709 0 -0 1 0 842)" font-size="15.955" font-family="KSOPYW+·ÂËÎ"><tspan y="-536.923" x="411.12 427.205">&#x5206;&#x3002;</tspan></text><text xml:space="preserve" transform="matrix(.999709 0 -0 1 0 842)" font-size="15.955" font-family="KTPFLV+TimesNewRoman"><tspan y="-536.923" x="443.169"></tspan></text><text xml:space="preserve" transform="matrix(.999709 0 -0 1 0 842)" font-size="15.955" font-family="FUMEIQ+¿¬Ìå"><tspan y="-499.733" x="108.631 124.716 140.681 156.766">&#xff08;&#x4e8c;&#xff09;&#x7b2c;</tspan></text><text xml:space="preserve" transform="matrix(.999709 0 -0 1 0 842)" font-size="15.955" font-family="KTPFLV+TimesNewRoman"><tspan y="-499.733" x="176.691">2</tspan></text><text xml:space="preserve" transform="matrix(.999709 0 -0 1 0 842)" font-size="15.955" font-family="FUMEIQ+¿¬Ìå"><tspan y="-499.733" x="187.855 203.939 219.904 235.989 251.953 267.918 284.003 299.968 315.932 331.897">&#x8003;&#x7ad9;&#xff1a;&#x8d85;&#x58f0;&#x64cd;&#x4f5c;&#x6280;&#x80fd;&#x7ad9;</tspan></text><text xml:space="preserve" transform="matrix(.999709 0 -0 1 0 842)" font-size="15.955" font-family="KTPFLV+TimesNewRoman"><tspan y="-499.733" x="347.862"></tspan></text><text xml:space="preserve" transform="matrix(.999709 0 -0 1 0 842)" font-size="15.955" font-family="DYGVYL+TimesNewRoman,Bold" font-weight="bold"><tspan y="-462.544" x="108.752">1</tspan></text><text xml:space="preserve" transform="matrix(.999709 0 -0 1 0 842)" font-size="15.955" font-family="KSOPYW+·ÂËÎ"><tspan y="-462.424" x="116.914">&#xff0e;</tspan></text><text xml:space="preserve" transform="matrix(.999709 0 -0 1 0 842)" font-size="15.955" font-family="KSOPYW+·ÂËÎ"><tspan y="-462.424" x="116.914">&#xff0e;</tspan></text><text xml:space="preserve" transform="matrix(.999709 0 -0 1 0 842)" font-size="15.955" font-family="KSOPYW+·ÂËÎ"><tspan y="-462.424" x="132.999">&#x8003;</tspan></text><text xml:space="preserve" transform="matrix(.999709 0 -0 1 0 842)" font-size="15.955" font-family="KSOPYW+·ÂËÎ"><tspan y="-462.424" x="132.999">&#x8003;</tspan></text><text xml:space="preserve" transform="matrix(.999709 0 -0 1 0 842)" font-size="15.955" font-family="KSOPYW+·ÂËÎ"><tspan y="-462.424" x="149.084">&#x6838;</tspan></text><text xml:space="preserve" transform="matrix(.999709 0 -0 1 0 842)" font-size="15.955" font-family="KSOPYW+·ÂËÎ"><tspan y="-462.424" x="149.084">&#x6838;</tspan></text><text xml:space="preserve" transform="matrix(.999709 0 -0 1 0 842)" font-size="15.955" font-family="KSOPYW+·ÂËÎ"><tspan y="-462.424" x="165.168">&#x5185;</tspan></text><text xml:space="preserve" transform="matrix(.999709 0 -0 1 0 842)" font-size="15.955" font-family="KSOPYW+·ÂËÎ"><tspan y="-462.424" x="165.168">&#x5185;</tspan></text><text xml:space="preserve" transform="matrix(.999709 0 -0 1 0 842)" font-size="15.955" font-family="KSOPYW+·ÂËÎ"><tspan y="-462.424" x="181.253">&#x5bb9;</tspan></text><text xml:space="preserve" transform="matrix(.999709 0 -0 1 0 842)" font-size="15.955" font-family="KSOPYW+·ÂËÎ"><tspan y="-462.424" x="181.253">&#x5bb9;</tspan></text><text xml:space="preserve" transform="matrix(.999709 0 -0 1 0 842)" font-size="15.955" font-family="KSOPYW+·ÂËÎ"><tspan y="-462.544" x="197.218 213.183 229.147 245.232 261.197 277.161 293.246 309.211 325.175 341.14 357.225 373.19 389.154 405.239 421.204 437.168 453.133 469.218 485.183 501.147">&#xff1a;&#x8d85;&#x58f0;&#x4eea;&#x5668;&#x64cd;&#x4f5c;&#x3001;&#x56fe;&#x50cf;&#x5b58;&#x50a8;&#x3001;&#x810f;&#x5668;&#x6216;&#x5207;&#x9762;&#x7684;&#x663e;</tspan><tspan y="-431.354" x="76.582 92.667 108.632 124.596 140.681 156.646 172.61 188.575 204.66 220.624 236.589 252.674 268.639 284.603 300.568">&#x793a;&#x3001;&#x6d4b;&#x91cf;&#x3001;&#x68c0;&#x67e5;&#x89c4;&#x8303;&#x53ca;&#x4eba;&#x6587;&#x5173;&#x6000;&#x3002;</tspan></text><text xml:space="preserve" transform="matrix(.999709 0 -0 1 0 842)" font-size="15.955" font-family="KTPFLV+TimesNewRoman"><tspan y="-431.354" x="316.533"></tspan></text><text xml:space="preserve" transform="matrix(.999709 0 -0 1 0 842)" font-size="15.955" font-family="DYGVYL+TimesNewRoman,Bold" font-weight="bold"><tspan y="-400.163" x="108.752">2</tspan></text><text xml:space="preserve" transform="matrix(.999709 0 -0 1 0 842)" font-size="15.955" font-family="KSOPYW+·ÂËÎ"><tspan y="-400.043" x="116.914">&#xff0e;</tspan></text><text xml:space="preserve" transform="matrix(.999709 0 -0 1 0 842)" font-size="15.955" font-family="KSOPYW+·ÂËÎ"><tspan y="-400.043" x="116.914">&#xff0e;</tspan></text><text xml:space="preserve" transform="matrix(.999709 0 -0 1 0 842)" font-size="15.955" font-family="KSOPYW+·ÂËÎ"><tspan y="-400.043" x="132.999">&#x8003;</tspan></text><text xml:space="preserve" transform="matrix(.999709 0 -0 1 0 842)" font-size="15.955" font-family="KSOPYW+·ÂËÎ"><tspan y="-400.043" x="132.999">&#x8003;</tspan></text><text xml:space="preserve" transform="matrix(.999709 0 -0 1 0 842)" font-size="15.955" font-family="KSOPYW+·ÂËÎ"><tspan y="-400.043" x="149.084">&#x6838;</tspan></text><text xml:space="preserve" transform="matrix(.999709 0 -0 1 0 842)" font-size="15.955" font-family="KSOPYW+·ÂËÎ"><tspan y="-400.043" x="149.084">&#x6838;</tspan></text><text xml:space="preserve" transform="matrix(.999709 0 -0 1 0 842)" font-size="15.955" font-family="KSOPYW+·ÂËÎ"><tspan y="-400.043" x="165.168">&#x5f62;</tspan></text><text xml:space="preserve" transform="matrix(.999709 0 -0 1 0 842)" font-size="15.955" font-family="KSOPYW+·ÂËÎ"><tspan y="-400.043" x="165.168">&#x5f62;</tspan></text><text xml:space="preserve" transform="matrix(.999709 0 -0 1 0 842)" font-size="15.955" font-family="KSOPYW+·ÂËÎ"><tspan y="-400.043" x="181.253">&#x5f0f;</tspan></text><text xml:space="preserve" transform="matrix(.999709 0 -0 1 0 842)" font-size="15.955" font-family="KSOPYW+·ÂËÎ"><tspan y="-400.043" x="181.253">&#x5f0f;</tspan></text><text xml:space="preserve" transform="matrix(.999709 0 -0 1 0 842)" font-size="15.955" font-family="KSOPYW+·ÂËÎ"><tspan y="-400.163" x="197.218 213.183 229.147 245.232 261.197 277.161 293.246 309.211 325.175 341.14 357.225 373.19 389.154 405.239 421.204 437.168 453.133 469.218 485.183 501.147">&#xff1a;&#x4e0a;&#x673a;&#x64cd;&#x4f5c;&#x3002;&#x8003;&#x751f;&#x63a5;&#x8bca;&#x540e;&#x4e0e;&#x60a3;&#x8005;&#x6c9f;&#x901a;&#x3001;&#x7b80;&#x5355;&#x91c7;</tspan><tspan y="-368.972" x="76.582 92.667 108.632 124.596 140.681 156.646 172.61 188.575 204.66 220.625 236.589 252.674 268.639 284.603 300.568 316.653 332.617 348.582 364.667 380.632 396.596 412.561 428.646 444.61 460.575 476.66 492.625">&#x96c6;&#x75c5;&#x53f2;&#x5f00;&#x59cb;&#x68c0;&#x67e5;&#x3002;&#x5305;&#x62ec;&#x9009;&#x62e9;&#x63a2;&#x5934;&#xff0c;&#x8c03;&#x8282;&#x4eea;&#x5668;&#xff0c;&#x4ee5;&#x53ca;&#x5404;&#x810f;&#x5668;&#x89c4;&#x8303;</tspan><tspan y="-337.781" x="76.582 92.667 108.632 124.596 140.681 156.646 172.61 188.575 204.66 220.624 236.589 252.674 268.639 284.603 300.568 316.653 332.617 348.582 364.667 380.632 396.596 412.561 428.646 444.61 460.575 476.66">&#x626b;&#x67e5;&#x3002;&#x626b;&#x67e5;&#x8fc7;&#x7a0b;&#x6309;&#x8003;&#x5b98;&#x8981;&#x6c42;&#x6253;&#x51fa;&#x76f8;&#x5e94;&#x6807;&#x51c6;&#x5207;&#x9762;&#x6216;&#x5173;&#x952e;&#x89e3;&#x5256;&#x90e8;</tspan><tspan y="-306.59" x="76.582 92.667 108.632 124.596 140.681 156.646 172.61 188.575 204.66 220.624 236.589 252.674 268.639 284.603 300.568 316.653 332.617 348.702">&#x4f4d;&#x3002;&#x8bc4;&#x5206;&#x7ec6;&#x5219;&#x53ca;&#x8bc4;&#x5206;&#x8868;&#x53ca;&#x8bd5;&#x9898;&#x8303;&#x4f8b;&#x89c1;&#x9644;&#x4ef6;</tspan></text><text xml:space="preserve" transform="matrix(.999709 0 -0 1 0 842)" font-size="15.955" font-family="KTPFLV+TimesNewRoman"><tspan y="-306.59" x="368.628">1</tspan></text><text xml:space="preserve" transform="matrix(.999709 0 -0 1 0 842)" font-size="15.955" font-family="KSOPYW+·ÂËÎ"><tspan y="-306.59" x="376.67 392.635 408.599">&#x3001;&#x9644;&#x4ef6;</tspan></text><text xml:space="preserve" transform="matrix(.999709 0 -0 1 0 842)" font-size="15.955" font-family="KTPFLV+TimesNewRoman"><tspan y="-306.59" x="428.645">2</tspan></text><text xml:space="preserve" transform="matrix(.999709 0 -0 1 0 842)" font-size="15.955" font-family="KSOPYW+·ÂËÎ"><tspan y="-306.59" x="439.808 455.893 471.858">&#x548c;&#x9644;&#x4ef6;</tspan></text><text xml:space="preserve" transform="matrix(.999709 0 -0 1 0 842)" font-size="15.955" font-family="KTPFLV+TimesNewRoman"><tspan y="-306.59" x="491.904 499.946">3-</tspan><tspan y="-275.399" x="76.582">2</tspan></text><text xml:space="preserve" transform="matrix(.999709 0 -0 1 0 842)" font-size="15.955" font-family="KSOPYW+·ÂËÎ"><tspan y="-275.399" x="84.624">&#x3002;</tspan></text><text xml:space="preserve" transform="matrix(.999709 0 -0 1 0 842)" font-size="15.955" font-family="KTPFLV+TimesNewRoman"><tspan y="-275.399" x="100.589"></tspan></text><text xml:space="preserve" transform="matrix(.999709 0 -0 1 0 842)" font-size="15.955" font-family="DYGVYL+TimesNewRoman,Bold" font-weight="bold"><tspan y="-244.208" x="108.751">3</tspan></text><text xml:space="preserve" transform="matrix(.999709 0 -0 1 0 842)" font-size="15.955" font-family="KSOPYW+·ÂËÎ"><tspan y="-244.088" x="116.914">&#xff0e;</tspan></text><text xml:space="preserve" transform="matrix(.999709 0 -0 1 0 842)" font-size="15.955" font-family="KSOPYW+·ÂËÎ"><tspan y="-244.088" x="116.914">&#xff0e;</tspan></text><text xml:space="preserve" transform="matrix(.999709 0 -0 1 0 842)" font-size="15.955" font-family="KSOPYW+·ÂËÎ"><tspan y="-244.088" x="132.999">&#x8003;</tspan></text><text xml:space="preserve" transform="matrix(.999709 0 -0 1 0 842)" font-size="15.955" font-family="KSOPYW+·ÂËÎ"><tspan y="-244.088" x="132.999">&#x8003;</tspan></text><text xml:space="preserve" transform="matrix(.999709 0 -0 1 0 842)" font-size="15.955" font-family="KSOPYW+·ÂËÎ"><tspan y="-244.088" x="149.084">&#x6838;</tspan></text><text xml:space="preserve" transform="matrix(.999709 0 -0 1 0 842)" font-size="15.955" font-family="KSOPYW+·ÂËÎ"><tspan y="-244.088" x="149.084">&#x6838;</tspan></text><text xml:space="preserve" transform="matrix(.999709 0 -0 1 0 842)" font-size="15.955" font-family="KSOPYW+·ÂËÎ"><tspan y="-244.088" x="165.168">&#x8bd5;</tspan></text><text xml:space="preserve" transform="matrix(.999709 0 -0 1 0 842)" font-size="15.955" font-family="KSOPYW+·ÂËÎ"><tspan y="-244.088" x="165.168">&#x8bd5;</tspan></text><text xml:space="preserve" transform="matrix(.999709 0 -0 1 0 842)" font-size="15.955" font-family="KSOPYW+·ÂËÎ"><tspan y="-244.088" x="181.253">&#x9898;</tspan></text><text xml:space="preserve" transform="matrix(.999709 0 -0 1 0 842)" font-size="15.955" font-family="KSOPYW+·ÂËÎ"><tspan y="-244.088" x="181.253">&#x9898;</tspan></text><text xml:space="preserve" transform="matrix(.999709 0 -0 1 0 842)" font-size="15.955" font-family="KSOPYW+·ÂËÎ"><tspan y="-244.208" x="197.218 213.183 229.147 245.232 261.197 277.161 293.246 309.211 325.175 341.14 357.225 373.19 389.154 405.239 421.204">&#xff1a;&#x62db;&#x52df;&#x771f;&#x4eba;&#x5fd7;&#x613f;&#x8005;&#x4f5c;&#x4e3a;&#x6807;&#x51c6;&#x5316;&#x75c5;&#x4eba;</tspan><tspan y="-213.018" x="76.582">&#xff08;</tspan></text><text xml:space="preserve" transform="matrix(.999709 0 -0 1 0 842)" font-size="15.955" font-family="KTPFLV+TimesNewRoman"><tspan y="-213.018" x="92.667 101.549 105.991 113.073 121.115 129.158 136.24 141.521 149.564 154.005 161.087 168.169 176.211 180.173 189.055 196.137 200.579 205.02 212.102 220.144">Standardized Patient</tspan></text><text xml:space="preserve" transform="matrix(.999709 0 -0 1 0 842)" font-size="15.955" font-family="KSOPYW+·ÂËÎ"><tspan y="-213.018" x="224.585 240.67 256.635">&#xff0c;&#x7b80;&#x79f0;</tspan></text><text xml:space="preserve" transform="matrix(.999709 0 -0 1 0 842)" font-size="15.955" font-family="KTPFLV+TimesNewRoman"><tspan y="-213.018" x="276.681 285.563">SP</tspan></text><text xml:space="preserve" transform="matrix(.999709 0 -0 1 0 842)" font-size="15.955" font-family="KSOPYW+·ÂËÎ"><tspan y="-213.018" x="294.446 302.488 318.453 334.538 350.502 366.467 382.552 398.516 414.481 430.446 446.531 462.495 478.46 494.545">&#xff09;&#xff0c;&#x6309;&#x5404;&#x4e9a;&#x7ad9;&#x4e0d;&#x540c;&#x8003;&#x6838;&#x5185;&#x5bb9;&#x7531;&#x8003;</tspan><tspan y="-181.827" x="76.582 92.666 108.631 124.596 140.68 156.645 172.61 188.575 204.659 220.624 236.589 252.673 268.638 284.603 300.567 316.652">&#x751f;&#x5bf9;&#x76f8;&#x5e94;&#x810f;&#x5668;&#x6216;&#x5207;&#x9762;&#x8fdb;&#x884c;&#x8d85;&#x58f0;&#x626b;&#x67e5;&#x3002;</tspan></text><text xml:space="preserve" transform="matrix(.999709 0 -0 1 0 842)" font-size="15.955" font-family="KTPFLV+TimesNewRoman"><tspan y="-181.827" x="332.737 336.578"></tspan></text><text xml:space="preserve" transform="matrix(.999709 0 -0 1 0 842)" font-size="15.955" font-family="KSOPYW+·ÂËÎ"><tspan y="-150.636" x="108.631">&#xff08;</tspan></text><text xml:space="preserve" transform="matrix(.999709 0 -0 1 0 842)" font-size="15.955" font-family="KTPFLV+TimesNewRoman"><tspan y="-150.636" x="124.716">1</tspan></text><text xml:space="preserve" transform="matrix(.999709 0 -0 1 0 842)" font-size="15.955" font-family="KSOPYW+·ÂËÎ"><tspan y="-150.636" x="132.638 148.723 164.688 180.652 196.737 212.702 228.666 244.751 260.716 276.681 292.765 308.73 324.695 340.659 356.744 372.709 388.674 404.758 420.723">&#xff09;&#x8179;&#x90e8;&#x8d85;&#x58f0;&#x6280;&#x80fd;&#x7ad9;&#xff1a;&#x8003;&#x751f;&#x4ece;&#x8179;&#x90e8;&#x4e94;&#x4e2a;&#x9879;&#x76ee;&#xff08;</tspan></text><text xml:space="preserve" transform="matrix(.999709 0 -0 1 0 842)" font-size="15.955" font-family="QEOFAN+ËÎÌå"><tspan y="-150.636" x="436.807">&#x2460;</tspan></text><text xml:space="preserve" transform="matrix(.999709 0 -0 1 0 842)" font-size="15.955" font-family="KSOPYW+·ÂËÎ"><tspan y="-150.636" x="452.652 468.736 484.701 500.666">&#x809d;&#x810f;&#x5de6;&#x53f6;</tspan><tspan y="-119.445" x="76.581 92.666 108.63 124.595 140.68 156.644 172.609 188.574 204.659">&#x53ca;&#x95e8;&#x9759;&#x8109;&#x4e3b;&#x5e72;&#x5207;&#x9762;&#xff1b;</tspan></text><text xml:space="preserve" transform="matrix(.999709 0 -0 1 0 842)" font-size="15.955" font-family="QEOFAN+ËÎÌå"><tspan y="-119.445" x="220.744">&#x2461;</tspan></text><text xml:space="preserve" transform="matrix(.999709 0 -0 1 0 842)" font-size="15.955" font-family="KSOPYW+·ÂËÎ"><tspan y="-119.445" x="236.588 252.673 268.638 284.603 300.567 316.652 332.617 348.581 364.666 380.631 396.595 412.56 428.645">&#x809d;&#x810f;&#x53f3;&#x53f6;&#x53ca;&#x95e8;&#x9759;&#x8109;&#x4e3b;&#x5e72;&#x5207;&#x9762;&#xff1b;</tspan></text><text xml:space="preserve" transform="matrix(.999709 0 -0 1 0 842)" font-size="15.955" font-family="QEOFAN+ËÎÌå"><tspan y="-119.445" x="444.729">&#x2462;</tspan></text><text xml:space="preserve" transform="matrix(.999709 0 -0 1 0 842)" font-size="15.955" font-family="KSOPYW+·ÂËÎ"><tspan y="-119.445" x="460.574 476.659 492.623">&#x80c6;&#x9053;&#x7cfb;</tspan><tspan y="-88.254" x="76.582 92.666">&#x7edf;&#xff1b;</tspan></text><text xml:space="preserve" transform="matrix(.999709 0 -0 1 0 842)" font-size="15.955" font-family="QEOFAN+ËÎÌå"><tspan y="-88.254" x="108.751">&#x2463;</tspan></text><text xml:space="preserve" transform="matrix(.999709 0 -0 1 0 842)" font-size="15.955" font-family="KSOPYW+·ÂËÎ"><tspan y="-88.254" x="124.596 140.68 156.645">&#x80f0;&#x817a;&#xff1b;</tspan></text><text xml:space="preserve" transform="matrix(.999709 0 -0 1 0 842)" font-size="15.955" font-family="QEOFAN+ËÎÌå"><tspan y="-88.254" x="172.73">&#x2464;</tspan></text><text xml:space="preserve" transform="matrix(.999709 0 -0 1 0 842)" font-size="15.955" font-family="KSOPYW+·ÂËÎ"><tspan y="-88.254" x="188.574 204.659 220.624 236.589 252.673 268.638 284.603 300.567 316.652 332.617 348.582 364.666">&#x80be;&#x810f;&#xff09;&#x4e2d;&#x968f;&#x673a;&#x62bd;&#x9009;&#x4e00;&#x9879;&#x76ee;&#x5bf9;</tspan></text><text xml:space="preserve" transform="matrix(.999709 0 -0 1 0 842)" font-size="15.955" font-family="KTPFLV+TimesNewRoman"><tspan y="-88.254" x="384.712 393.595">SP</tspan></text><text xml:space="preserve" transform="matrix(.999709 0 -0 1 0 842)" font-size="15.955" font-family="KSOPYW+·ÂËÎ"><tspan y="-88.254" x="405.598 421.563 437.648 453.612 469.577 485.662 501.626">&#x8fdb;&#x884c;&#x8d85;&#x58f0;&#x626b;&#x67e5;&#x3002;</tspan></text><text xml:space="preserve" transform="matrix(.999709 0 -0 1 0 842)" font-size="15.955" font-family="KTPFLV+TimesNewRoman"><tspan y="-88.254" x="517.591"></tspan></text></svg>