<svg xmlns="http://www.w3.org/2000/svg" xmlns:xlink="http://www.w3.org/1999/xlink" xmlns:inkscape="http://www.inkscape.org/namespaces/inkscape" version="1.1" width="595" height="842" viewBox="0 0 595 842"><text xml:space="preserve" transform="matrix(.9997155 0 -0 1 0 842)" font-size="8.997" font-family="KTPFLV+TimesNewRoman"><tspan y="-791.013" x="306.688"></tspan></text><text xml:space="preserve" transform="matrix(.99971196 0 -0 1 0 842)" font-size="10.557" font-family="KTPFLV+TimesNewRoman"><tspan y="-45.067" x="297.926 301.287 303.928 309.21 311.97 315.451">- 6 - </tspan></text><text xml:space="preserve" transform="matrix(.999709 0 -0 1 0 842)" font-size="15.955" font-family="KTPFLV+TimesNewRoman"><tspan y="-755.259" x="108.632 112.593 116.554 120.515"></tspan></text><text xml:space="preserve" transform="matrix(.999709 0 -0 1 0 842)" font-size="15.955" font-family="KSOPYW+·ÂËÎ"><tspan y="-755.259" x="124.476">&#xff08;</tspan></text><text xml:space="preserve" transform="matrix(.999709 0 -0 1 0 842)" font-size="15.955" font-family="KTPFLV+TimesNewRoman"><tspan y="-755.259" x="140.561">1</tspan></text><text xml:space="preserve" transform="matrix(.999709 0 -0 1 0 842)" font-size="15.955" font-family="KSOPYW+·ÂËÎ"><tspan y="-755.259" x="148.604 164.688 180.653 196.738 212.702 228.667 244.752 260.716 276.681 292.766 308.731 324.695 340.66 356.745 372.709 388.674 404.759">&#xff09;&#x8d85;&#x58f0;&#x4e34;&#x5e8a;&#x601d;&#x7ef4;&#x7ad9;&#xff1a;&#x56db;&#x4e9a;&#x7ad9;&#x603b;&#x5e73;&#x5747;&#x5206;&#x2265;</tspan></text><text xml:space="preserve" transform="matrix(.999709 0 -0 1 0 842)" font-size="15.955" font-family="KTPFLV+TimesNewRoman"><tspan y="-755.259" x="420.724 428.766">70</tspan></text><text xml:space="preserve" transform="matrix(.999709 0 -0 1 0 842)" font-size="15.955" font-family="KSOPYW+·ÂËÎ"><tspan y="-755.259" x="439.929 455.894 471.979 487.944">&#x5206;&#xff0c;&#x6216;&#x81f3;</tspan><tspan y="-724.068" x="76.583 92.668">&#x5c11;&#x6709;</tspan></text><text xml:space="preserve" transform="matrix(.999709 0 -0 1 0 842)" font-size="15.955" font-family="KTPFLV+TimesNewRoman"><tspan y="-724.068" x="112.594">3</tspan></text><text xml:space="preserve" transform="matrix(.999709 0 -0 1 0 842)" font-size="15.955" font-family="KSOPYW+·ÂËÎ"><tspan y="-724.068" x="123.877 139.841 155.806 171.891 187.856 203.94">&#x4e2a;&#x4e9a;&#x7ad9;&#x5f97;&#x5206;&#x2265;</tspan></text><text xml:space="preserve" transform="matrix(.999709 0 -0 1 0 842)" font-size="15.955" font-family="KTPFLV+TimesNewRoman"><tspan y="-724.068" x="219.905 227.947">70</tspan></text><text xml:space="preserve" transform="matrix(.999709 0 -0 1 0 842)" font-size="15.955" font-family="KSOPYW+·ÂËÎ"><tspan y="-724.068" x="239.111 255.075">&#x5206;&#xff1b;</tspan></text><text xml:space="preserve" transform="matrix(.999709 0 -0 1 0 842)" font-size="15.955" font-family="KTPFLV+TimesNewRoman"><tspan y="-724.068" x="271.04"></tspan><tspan y="-692.877" x="108.633 112.594 116.555 120.516"></tspan></text><text xml:space="preserve" transform="matrix(.999709 0 -0 1 0 842)" font-size="15.955" font-family="KSOPYW+·ÂËÎ"><tspan y="-692.877" x="124.477">&#xff08;</tspan></text><text xml:space="preserve" transform="matrix(.999709 0 -0 1 0 842)" font-size="15.955" font-family="KTPFLV+TimesNewRoman"><tspan y="-692.877" x="140.562">2</tspan></text><text xml:space="preserve" transform="matrix(.999709 0 -0 1 0 842)" font-size="15.955" font-family="KSOPYW+·ÂËÎ"><tspan y="-692.877" x="148.604 164.689 180.654 196.738 212.703 228.668 244.753 260.717 276.682 292.767 308.731 324.696 340.661 356.745 372.71 388.675 404.76 420.724">&#xff09;&#x8d85;&#x58f0;&#x64cd;&#x4f5c;&#x6280;&#x80fd;&#x7ad9;&#xff1a;&#x6bcf;&#x4e2a;&#x4e9a;&#x7ad9;&#x5747;&#x9700;&#x5f97;&#x5206;&#x2265;</tspan></text><text xml:space="preserve" transform="matrix(.999709 0 -0 1 0 842)" font-size="15.955" font-family="KTPFLV+TimesNewRoman"><tspan y="-692.877" x="436.809 444.731">70</tspan></text><text xml:space="preserve" transform="matrix(.999709 0 -0 1 0 842)" font-size="15.955" font-family="KSOPYW+·ÂËÎ"><tspan y="-692.877" x="455.894 471.979">&#x5206;&#xff1b;</tspan></text><text xml:space="preserve" transform="matrix(.999709 0 -0 1 0 842)" font-size="15.955" font-family="KTPFLV+TimesNewRoman"><tspan y="-692.877" x="487.944"></tspan><tspan y="-661.686" x="108.632 112.593 116.554 120.515"></tspan></text><text xml:space="preserve" transform="matrix(.999709 0 -0 1 0 842)" font-size="15.955" font-family="KSOPYW+·ÂËÎ"><tspan y="-661.686" x="124.477">&#xff08;</tspan></text><text xml:space="preserve" transform="matrix(.999709 0 -0 1 0 842)" font-size="15.955" font-family="KTPFLV+TimesNewRoman"><tspan y="-661.686" x="140.561">3</tspan></text><text xml:space="preserve" transform="matrix(.999709 0 -0 1 0 842)" font-size="15.955" font-family="KSOPYW+·ÂËÎ"><tspan y="-661.686" x="148.604 164.688 180.653 196.738 212.703 228.667 244.752 260.717 276.681 292.766 308.731 324.695 340.66">&#xff09;&#x4e34;&#x5e8a;&#x4eba;&#x6587;&#x6c9f;&#x901a;&#x7ad9;&#xff1a;&#x9700;&#x5f97;&#x5206;&#x2265;</tspan></text><text xml:space="preserve" transform="matrix(.999709 0 -0 1 0 842)" font-size="15.955" font-family="KTPFLV+TimesNewRoman"><tspan y="-661.686" x="356.745 364.667">70</tspan></text><text xml:space="preserve" transform="matrix(.999709 0 -0 1 0 842)" font-size="15.955" font-family="KSOPYW+·ÂËÎ"><tspan y="-661.686" x="375.95 391.915">&#x5206;&#x3002;</tspan></text><text xml:space="preserve" transform="matrix(.999709 0 -0 1 0 842)" font-size="15.955" font-family="KTPFLV+TimesNewRoman"><tspan y="-661.686" x="407.88"></tspan></text><text xml:space="preserve" transform="matrix(.999709 0 -0 1 0 842)" font-size="15.955" font-family="KSOPYW+·ÂËÎ"><tspan y="-630.495" x="108.631 124.716 140.681 156.645 172.73 188.695 204.66 220.624 236.709 252.674 268.638 284.723 300.688 316.653 332.617 348.702 364.667 380.631 396.716 412.681 428.646 444.61 460.695 476.66 492.624">&#x6b64;&#x6807;&#x51c6;&#x4ec5;&#x4f5c;&#x4e3a;&#x63a8;&#x8350;&#x6807;&#x51c6;&#xff0c;&#x5404;&#x8003;&#x533a;&#x53ef;&#x4f9d;&#x636e;&#x5b9e;&#x9645;&#x5177;&#x4f53;&#x60c5;&#x51b5;&#x81ea;&#x884c;</tspan><tspan y="-599.304" x="76.582 92.667 108.631">&#x8c03;&#x6574;&#x3002;</tspan></text><text xml:space="preserve" transform="matrix(.999709 0 -0 1 0 842)" font-size="15.955" font-family="KTPFLV+TimesNewRoman"><tspan y="-599.304" x="124.596"></tspan></text><text xml:space="preserve" transform="matrix(.999709 0 -0 1 0 842)" font-size="15.955" font-family="QGRJFF+ºÚÌå"><tspan y="-562.115" x="108.631 124.716 140.681 156.645 172.73 188.695">&#x56db;&#x3001;&#x5177;&#x4f53;&#x5b9e;&#x65bd;</tspan></text><text xml:space="preserve" transform="matrix(.999709 0 -0 1 0 842)" font-size="15.955" font-family="KTPFLV+TimesNewRoman"><tspan y="-562.115" x="204.66"></tspan></text><text xml:space="preserve" transform="matrix(.999709 0 -0 1 0 842)" font-size="15.955" font-family="FUMEIQ+¿¬Ìå"><tspan y="-524.926" x="108.631 124.716 140.681 156.645 172.73 188.695">&#xff08;&#x4e00;&#xff09;&#x547d;&#x9898; </tspan></text><text xml:space="preserve" transform="matrix(.999709 0 -0 1 0 842)" font-size="15.955" font-family="KTPFLV+TimesNewRoman"><tspan y="-487.737" x="108.631 116.674">1.</tspan></text><text xml:space="preserve" transform="matrix(.999709 0 -0 1 0 842)" font-size="15.955" font-family="RJGGIM+Arial"><tspan y="-487.737" x="120.635"></tspan></text><text xml:space="preserve" transform="matrix(.999709 0 -0 1 0 842)" font-size="15.955" font-family="KSOPYW+·ÂËÎ"><tspan y="-487.737" x="133.239 149.323 165.288 181.253">&#x547d;&#x9898;&#x4eba;&#x5458;</tspan></text><text xml:space="preserve" transform="matrix(.999709 0 -0 1 0 842)" font-size="15.955" font-family="KTPFLV+TimesNewRoman"><tspan y="-487.737" x="197.217"></tspan></text><text xml:space="preserve" transform="matrix(.999709 0 -0 1 0 842)" font-size="15.955" font-family="KSOPYW+·ÂËÎ"><tspan y="-456.546" x="108.631 125.076 141.521 157.966 174.411 190.855 207.3 223.625 240.07 256.515 272.96 289.404 305.849 322.294 338.619 355.064 371.509 387.954 404.398 420.843 437.288 453.613 470.058 486.503 502.947">&#x7531;&#x5404;&#x8003;&#x533a;&#x7edf;&#x4e00;&#x7ec4;&#x7ec7;&#x8003;&#x6838;&#x57fa;&#x5730;&#x8054;&#x5408;&#x7ec4;&#x5efa;&#x547d;&#x9898;&#x4e13;&#x5bb6;&#x7ec4;&#x8fdb;&#x884c;&#x547d;&#x5ba1;</tspan><tspan y="-425.355" x="76.582 92.667 108.631 124.596 140.681 156.645 172.61 188.575 204.66 220.624 236.589 252.674 268.638 284.603 300.568 316.652 332.617 348.582">&#x9898;&#x3001;&#x7ec4;&#x5377;&#x3001;&#x5236;&#x5377;&#x3002;&#x547d;&#x9898;&#x4e13;&#x5bb6;&#x5e94;&#x7ecf;&#x8fc7;&#x57f9;&#x8bad;&#x3002;</tspan></text><text xml:space="preserve" transform="matrix(.999709 0 -0 1 0 842)" font-size="15.955" font-family="KTPFLV+TimesNewRoman"><tspan y="-425.355" x="364.547"></tspan><tspan y="-394.164" x="108.632 116.674">2.</tspan></text><text xml:space="preserve" transform="matrix(.999709 0 -0 1 0 842)" font-size="15.955" font-family="RJGGIM+Arial"><tspan y="-394.164" x="120.635"></tspan></text><text xml:space="preserve" transform="matrix(.999709 0 -0 1 0 842)" font-size="15.955" font-family="KSOPYW+·ÂËÎ"><tspan y="-394.164" x="133.239 149.323 165.288 181.253">&#x8bd5;&#x9898;&#x8bbe;&#x8ba1;</tspan></text><text xml:space="preserve" transform="matrix(.999709 0 -0 1 0 842)" font-size="15.955" font-family="KTPFLV+TimesNewRoman"><tspan y="-394.164" x="197.217"></tspan></text><text xml:space="preserve" transform="matrix(.999709 0 -0 1 0 842)" font-size="15.955" font-family="KSOPYW+·ÂËÎ"><tspan y="-362.973" x="108.631 125.076 141.521 157.966 174.411 190.856 207.3 223.625 240.07 256.515 272.96 289.405 305.849 322.294 338.619 355.064 371.509 387.954 404.398 420.843 437.288 453.613 470.058 486.503 502.948">&#x540c;&#x4e00;&#x8003;&#x533a;&#x5404;&#x8003;&#x6838;&#x57fa;&#x5730;&#x52a1;&#x5fc5;&#x4f7f;&#x7528;&#x7edf;&#x4e00;&#x8bd5;&#x9898;&#x3002;&#x5404;&#x7ad9;&#x8bd5;&#x9898;&#x6570;&#x91cf;&#x6839;</tspan><tspan y="-331.783" x="76.582 93.027 109.472 125.917 142.241 158.686 175.011 191.336 207.781 224.225 240.67 256.995 273.44 289.765 306.09 322.534 338.979 355.424 371.749 388.194 404.519 420.843 437.288 453.733 470.178 486.503 502.828">&#x636e;&#x8003;&#x8bd5;&#x6279;&#x6b21;&#x5b89;&#x6392;&#x8bbe;&#x5b9a;&#xff0c;&#x4e0d;&#x5f97;&#x5c11;&#x4e8e;&#x6bcf;&#x534a;&#x5929;&#x4e00;&#x5957;&#x8bd5;&#x9898;&#xff0c;&#x5404;&#x6279;&#x6b21;&#x4e4b;&#x95f4;</tspan><tspan y="-300.592" x="76.582 92.667 108.631 124.596 140.681 156.646 172.61 188.575 204.66 220.624 236.709">&#x4e0d;&#x5f97;&#x91cd;&#x590d;&#xff0c;&#x5e76;&#x5e94;&#x51c6;&#x5907;&#x81f3;&#x5c11;</tspan></text><text xml:space="preserve" transform="matrix(.999709 0 -0 1 0 842)" font-size="15.955" font-family="KTPFLV+TimesNewRoman"><tspan y="-300.592" x="256.635">1</tspan></text><text xml:space="preserve" transform="matrix(.999709 0 -0 1 0 842)" font-size="15.955" font-family="KSOPYW+·ÂËÎ"><tspan y="-300.592" x="267.798 283.883 299.848 315.933 331.897">&#x5957;&#x5907;&#x7528;&#x5377;&#x3002;</tspan></text><text xml:space="preserve" transform="matrix(.999709 0 -0 1 0 842)" font-size="15.955" font-family="KTPFLV+TimesNewRoman"><tspan y="-300.592" x="347.862"></tspan></text><text xml:space="preserve" transform="matrix(.999709 0 -0 1 0 842)" font-size="15.955" font-family="KSOPYW+·ÂËÎ"><tspan y="-269.401" x="108.632 125.077 141.522 157.967 174.411 190.856 207.301 223.626 240.071 256.516 272.96 289.405 305.85 322.295 338.62 355.065 371.51 387.954 404.399 420.844 437.289 453.614 470.059 486.503 502.948">&#x8bd5;&#x9898;&#x5e94;&#x5728;&#x8003;&#x8bd5;&#x524d;&#x4fdd;&#x5bc6;&#x5370;&#x5236;&#x6216;&#x5236;&#x4f5c;&#x6210;&#x7535;&#x5b50;&#x6750;&#x6599;&#xff0c;&#x5236;&#x4f5c;&#x8003;&#x8bd5;&#x6750;</tspan><tspan y="-238.21" x="76.583 92.667 108.632 124.597 140.682 156.646 172.611 188.576 204.66 220.625 236.59 252.674 268.639 284.604 300.569 316.653 332.618 348.583 364.667">&#x6599;&#x5e94;&#x7531;&#x4e13;&#x4eba;&#x8d1f;&#x8d23;&#xff0c;&#x5168;&#x7a0b;&#x5728;&#x4fdd;&#x5bc6;&#x76d1;&#x63a7;&#x4e0b;&#x8fdb;&#x884c;&#x3002;</tspan></text><text xml:space="preserve" transform="matrix(.999709 0 -0 1 0 842)" font-size="15.955" font-family="KTPFLV+TimesNewRoman"><tspan y="-238.21" x="380.632"></tspan></text><text xml:space="preserve" transform="matrix(.999709 0 -0 1 0 842)" font-size="15.955" font-family="FUMEIQ+¿¬Ìå"><tspan y="-201.021" x="108.631 124.716 140.681 156.645 172.73 188.695">&#xff08;&#x4e8c;&#xff09;&#x573a;&#x5730; </tspan></text><text xml:space="preserve" transform="matrix(.999709 0 -0 1 0 842)" font-size="15.955" font-family="KTPFLV+TimesNewRoman"><tspan y="-163.832" x="108.631 116.674">1.</tspan></text><text xml:space="preserve" transform="matrix(.999709 0 -0 1 0 842)" font-size="15.955" font-family="RJGGIM+Arial"><tspan y="-163.832" x="120.635"></tspan></text><text xml:space="preserve" transform="matrix(.999709 0 -0 1 0 842)" font-size="15.955" font-family="KSOPYW+·ÂËÎ"><tspan y="-163.832" x="133.239 149.323 165.288 181.253">&#x8003;&#x6838;&#x57fa;&#x5730;</tspan></text><text xml:space="preserve" transform="matrix(.999709 0 -0 1 0 842)" font-size="15.955" font-family="KTPFLV+TimesNewRoman"><tspan y="-163.832" x="197.217"></tspan></text><text xml:space="preserve" transform="matrix(.999709 0 -0 1 0 842)" font-size="15.955" font-family="KSOPYW+·ÂËÎ"><tspan y="-132.641" x="108.631 124.716 140.681 156.645 172.73 188.695 204.659 220.624 236.589">&#x5404;&#x8003;&#x533a;&#x6839;&#x636e;&#x60c5;&#x51b5;&#x8bbe;&#x7acb;</tspan></text><text xml:space="preserve" transform="matrix(.999709 0 -0 1 0 842)" font-size="15.955" font-family="KTPFLV+TimesNewRoman"><tspan y="-132.641" x="255.434 263.477 268.758">1-2</tspan></text><text xml:space="preserve" transform="matrix(.999709 0 -0 1 0 842)" font-size="15.955" font-family="KSOPYW+·ÂËÎ"><tspan y="-132.641" x="278.961 294.926 310.89 326.975 342.94 359.025 374.989 390.954 407.039 423.003 438.968 454.933 471.018 486.982 502.947">&#x4e2a;&#x8003;&#x6838;&#x57fa;&#x5730;&#xff0c;&#x91c7;&#x7528;&#x7edf;&#x4e00;&#x8bd5;&#x9898;&#x3001;&#x7edf;&#x4e00;</tspan><tspan y="-101.45" x="76.581 93.026 109.471 125.796 142.241 158.565 175.01 191.335 207.78 224.225 240.55 256.994 273.319 289.764 306.089 322.534 338.979 355.303 371.748 388.073 404.518 420.843 437.288 453.732 470.057 486.502 502.827 519.032">&#x8003;&#x6838;&#x5f62;&#x5f0f;&#x4e0e;&#x6807;&#x51c6;&#x8fdb;&#x884c;&#x96c6;&#x4e2d;&#x8003;&#x6838;&#xff0c;&#x4ee5;&#x4fdd;&#x8bc1;&#x8003;&#x6838;&#x7684;&#x516c;&#x5e73;&#x6027;&#x548c;&#x540c;&#x8d28;&#x6027;&#x3002;</tspan></text><text xml:space="preserve" transform="matrix(.999709 0 -0 1 0 842)" font-size="15.955" font-family="KTPFLV+TimesNewRoman"><tspan y="-101.45" x="534.876"></tspan></text></svg>